<svg width="341" height="72" viewBox="0 0 341 72" fill="none" xmlns="http://www.w3.org/2000/svg">
<path d="M84.504 47.32C82.7547 47.32 81.144 47.032 79.672 46.456C78.2 45.88 76.92 45.08 75.832 44.056C74.744 43.0107 73.9013 41.7947 73.304 40.408C72.7067 39 72.408 37.464 72.408 35.8C72.408 34.136 72.7067 32.6107 73.304 31.224C73.9013 29.816 74.744 28.6 75.832 27.576C76.92 26.5307 78.2 25.72 79.672 25.144C81.144 24.568 82.744 24.28 84.472 24.28C86.2213 24.28 87.8213 24.568 89.272 25.144C90.744 25.72 92.024 26.5307 93.112 27.576C94.2 28.6 95.0427 29.816 95.64 31.224C96.2373 32.6107 96.536 34.136 96.536 35.8C96.536 37.464 96.2373 39 95.64 40.408C95.0427 41.816 94.2 43.032 93.112 44.056C92.024 45.08 90.744 45.88 89.272 46.456C87.8213 47.032 86.232 47.32 84.504 47.32ZM84.472 43.672C85.6027 43.672 86.648 43.48 87.608 43.096C88.568 42.712 89.4 42.168 90.104 41.464C90.808 40.7387 91.352 39.9067 91.736 38.968C92.1413 38.008 92.344 36.952 92.344 35.8C92.344 34.648 92.1413 33.6027 91.736 32.664C91.352 31.704 90.808 30.872 90.104 30.168C89.4 29.4427 88.568 28.888 87.608 28.504C86.648 28.12 85.6027 27.928 84.472 27.928C83.3413 27.928 82.296 28.12 81.336 28.504C80.3973 28.888 79.5653 29.4427 78.84 30.168C78.136 30.872 77.5813 31.704 77.176 32.664C76.792 33.6027 76.6 34.648 76.6 35.8C76.6 36.9307 76.792 37.976 77.176 38.936C77.5813 39.896 78.136 40.7387 78.84 41.464C79.544 42.168 80.376 42.712 81.336 43.096C82.296 43.48 83.3413 43.672 84.472 43.672ZM110.034 47.224C108.647 47.224 107.378 46.904 106.226 46.264C105.095 45.624 104.188 44.664 103.506 43.384C102.844 42.0827 102.514 40.44 102.514 38.456C102.514 36.4507 102.834 34.808 103.474 33.528C104.135 32.248 105.031 31.2987 106.161 30.68C107.292 30.04 108.583 29.72 110.034 29.72C111.719 29.72 113.202 30.0827 114.482 30.808C115.783 31.5333 116.807 32.5467 117.554 33.848C118.322 35.1493 118.706 36.6853 118.706 38.456C118.706 40.2267 118.322 41.7733 117.554 43.096C116.807 44.3973 115.783 45.4107 114.482 46.136C113.202 46.8613 111.719 47.224 110.034 47.224ZM100.562 53.208V29.912H104.37V33.944L104.242 38.488L104.562 43.032V53.208H100.562ZM109.586 43.8C110.546 43.8 111.399 43.5867 112.146 43.16C112.914 42.7333 113.522 42.1147 113.97 41.304C114.418 40.4933 114.642 39.544 114.642 38.456C114.642 37.3467 114.418 36.3973 113.97 35.608C113.522 34.7973 112.914 34.1787 112.146 33.752C111.399 33.3253 110.546 33.112 109.586 33.112C108.626 33.112 107.762 33.3253 106.994 33.752C106.226 34.1787 105.618 34.7973 105.17 35.608C104.722 36.3973 104.498 37.3467 104.498 38.456C104.498 39.544 104.722 40.4933 105.17 41.304C105.618 42.1147 106.226 42.7333 106.994 43.16C107.762 43.5867 108.626 43.8 109.586 43.8ZM128.931 47.224C127.054 47.224 125.603 46.744 124.579 45.784C123.555 44.8027 123.043 43.3627 123.043 41.464V26.136H127.043V41.368C127.043 42.1787 127.246 42.808 127.651 43.256C128.078 43.704 128.664 43.928 129.411 43.928C130.307 43.928 131.054 43.6933 131.651 43.224L132.771 46.072C132.302 46.456 131.726 46.744 131.043 46.936C130.36 47.128 129.656 47.224 128.931 47.224ZM120.227 33.24V30.04H131.619V33.24H120.227ZM136.062 47V29.912H140.062V47H136.062ZM138.078 27.096C137.331 27.096 136.712 26.8613 136.222 26.392C135.752 25.9227 135.518 25.3573 135.518 24.696C135.518 24.0133 135.752 23.448 136.222 23C136.712 22.5307 137.331 22.296 138.078 22.296C138.824 22.296 139.432 22.52 139.902 22.968C140.392 23.3947 140.638 23.9387 140.638 24.6C140.638 25.304 140.403 25.9013 139.934 26.392C139.464 26.8613 138.846 27.096 138.078 27.096ZM142.527 47L152.608 24.6H156.704L166.816 47H162.464L153.792 26.808H155.456L146.816 47H142.527ZM147.168 41.816L148.288 38.552H160.384L161.503 41.816H147.168ZM190.848 29.72C192.214 29.72 193.419 29.9867 194.464 30.52C195.531 31.0533 196.363 31.8747 196.96 32.984C197.558 34.072 197.856 35.48 197.856 37.208V47H193.856V37.72C193.856 36.2053 193.526 35.0747 192.864 34.328C192.203 33.5813 191.254 33.208 190.016 33.208C189.142 33.208 188.363 33.4 187.68 33.784C187.019 34.168 186.496 34.7333 186.112 35.48C185.75 36.2267 185.568 37.176 185.568 38.328V47H181.568V37.72C181.568 36.2053 181.238 35.0747 180.576 34.328C179.915 33.5813 178.966 33.208 177.728 33.208C176.854 33.208 176.075 33.4 175.392 33.784C174.731 34.168 174.208 34.7333 173.824 35.48C173.462 36.2267 173.28 37.176 173.28 38.328V47H169.28V29.912H173.088V34.456L172.416 33.112C172.992 32.0027 173.824 31.16 174.912 30.584C176.022 30.008 177.28 29.72 178.688 29.72C180.288 29.72 181.675 30.1147 182.848 30.904C184.043 31.6933 184.832 32.888 185.216 34.488L183.648 33.944C184.203 32.664 185.12 31.64 186.4 30.872C187.68 30.104 189.163 29.72 190.848 29.72ZM213.496 47V43.544L213.272 42.808V36.76C213.272 35.5867 212.92 34.68 212.216 34.04C211.512 33.3787 210.445 33.048 209.016 33.048C208.056 33.048 207.106 33.1973 206.168 33.496C205.25 33.7947 204.472 34.2107 203.832 34.744L202.264 31.832C203.181 31.128 204.269 30.6053 205.528 30.264C206.808 29.9013 208.13 29.72 209.496 29.72C211.97 29.72 213.88 30.3173 215.224 31.512C216.589 32.6853 217.272 34.5093 217.272 36.984V47H213.496ZM208.12 47.224C206.84 47.224 205.72 47.0107 204.76 46.584C203.8 46.136 203.053 45.528 202.52 44.76C202.008 43.9707 201.752 43.0853 201.752 42.104C201.752 41.144 201.976 40.28 202.424 39.512C202.893 38.744 203.65 38.136 204.696 37.688C205.741 37.24 207.128 37.016 208.856 37.016H213.816V39.672H209.144C207.778 39.672 206.861 39.896 206.392 40.344C205.922 40.7707 205.688 41.304 205.688 41.944C205.688 42.6693 205.976 43.2453 206.552 43.672C207.128 44.0987 207.928 44.312 208.952 44.312C209.933 44.312 210.808 44.088 211.576 43.64C212.365 43.192 212.93 42.5307 213.272 41.656L213.944 44.056C213.56 45.0587 212.866 45.8373 211.864 46.392C210.882 46.9467 209.634 47.224 208.12 47.224ZM220.997 47V44.472L231.525 31.736L232.261 33.112H221.189V29.912H235.461V32.44L224.933 45.176L224.133 43.8H235.749V47H220.997ZM247.219 47.224C245.32 47.224 243.656 46.8507 242.227 46.104C240.819 45.336 239.72 44.2907 238.931 42.968C238.163 41.6453 237.779 40.1413 237.779 38.456C237.779 36.7493 238.152 35.2453 238.899 33.944C239.667 32.6213 240.712 31.5867 242.035 30.84C243.379 30.0933 244.904 29.72 246.611 29.72C248.275 29.72 249.757 30.0827 251.059 30.808C252.36 31.5333 253.384 32.5573 254.131 33.88C254.877 35.2027 255.251 36.76 255.251 38.552C255.251 38.7227 255.24 38.9147 255.219 39.128C255.219 39.3413 255.208 39.544 255.187 39.736H240.947V37.08H253.075L251.507 37.912C251.528 36.9307 251.325 36.0667 250.899 35.32C250.472 34.5733 249.885 33.9867 249.139 33.56C248.413 33.1333 247.571 32.92 246.611 32.92C245.629 32.92 244.765 33.1333 244.019 33.56C243.293 33.9867 242.717 34.584 242.291 35.352C241.885 36.0987 241.683 36.984 241.683 38.008V38.648C241.683 39.672 241.917 40.5787 242.387 41.368C242.856 42.1573 243.517 42.7653 244.371 43.192C245.224 43.6187 246.205 43.832 247.315 43.832C248.275 43.832 249.139 43.6827 249.907 43.384C250.675 43.0853 251.357 42.616 251.955 41.976L254.099 44.44C253.331 45.336 252.36 46.0293 251.187 46.52C250.035 46.9893 248.712 47.224 247.219 47.224ZM259.093 47V29.912H262.901V34.616L262.453 33.24C262.965 32.088 263.765 31.2133 264.853 30.616C265.962 30.0187 267.338 29.72 268.981 29.72V33.528C268.81 33.4853 268.65 33.464 268.501 33.464C268.351 33.4427 268.202 33.432 268.053 33.432C266.538 33.432 265.333 33.88 264.437 34.776C263.541 35.6507 263.093 36.9627 263.093 38.712V47H259.093Z" fill="white"/>
<path d="M41.5595 35.755C42.1453 35.1692 42.1453 34.2195 41.5595 33.6337L32.0135 24.0877C31.4277 23.5019 30.478 23.5019 29.8922 24.0877C29.3064 24.6735 29.3064 25.6233 29.8922 26.2091L38.3775 34.6943L29.8922 43.1796C29.3064 43.7654 29.3064 44.7152 29.8922 45.3009C30.478 45.8867 31.4277 45.8867 32.0135 45.3009L41.5595 35.755ZM0 36.1943L40.4988 36.1943V33.1943L0 33.1943L0 36.1943Z" fill="white"/>
<path d="M299.441 33.6337C298.855 34.2195 298.855 35.1692 299.441 35.755L308.987 45.3009C309.572 45.8867 310.522 45.8867 311.108 45.3009C311.694 44.7152 311.694 43.7654 311.108 43.1796L302.623 34.6943L311.108 26.2091C311.694 25.6233 311.694 24.6735 311.108 24.0877C310.522 23.5019 309.572 23.5019 308.987 24.0877L299.441 33.6337ZM300.501 36.1943L341 36.1943V33.1943L300.501 33.1943V36.1943Z" fill="white"/>
</svg>
