<svg width="60" height="60" viewBox="0 0 60 60" fill="none" xmlns="http://www.w3.org/2000/svg">
<path d="M48.8475 29.9963C48.6862 29.9963 48.5287 29.9963 48.375 30C48.6225 28.7663 48.75 27.5063 48.75 26.25C48.75 15.9113 40.3387 7.5 30 7.5C19.6687 7.5 11.25 15.8287 11.2387 26.0588L11.2688 26.4375C4.845 27.3563 0 32.9175 0 39.375C0 45.9225 4.7175 51.555 11.25 52.5H20.625C21.1223 52.5 21.5992 52.3025 21.9508 51.9508C22.3025 51.5992 22.5 51.1223 22.5 50.625C22.5 50.1277 22.3025 49.6508 21.9508 49.2992C21.5992 48.9475 21.1223 48.75 20.625 48.75L11.5238 48.7687C7.16625 48.1275 3.75 43.9987 3.75 39.375C3.75 34.77 7.2075 30.8062 11.7975 30.15L13.41 29.9175C13.8566 29.8534 14.2652 29.6305 14.5607 29.2895C14.8562 28.9485 15.0188 28.5124 15.0188 28.0612L14.9887 26.0662C15 17.895 21.7313 11.25 30 11.25C38.2725 11.25 45 17.9775 45 26.25C45 27.2663 44.8988 28.29 44.6925 29.2838L44.1975 31.6687C44.0737 32.265 44.25 32.88 44.6625 33.3263C45.075 33.7688 45.6675 33.9975 46.2825 33.9038C46.3237 33.9 47.4975 33.7462 48.8475 33.7462C52.9313 33.7462 56.25 37.11 56.25 41.25C56.25 45.3862 52.8862 48.75 48.75 48.75H35.625C30.375 48.75 30.0187 45.6037 30 45V32.5575L34.4362 36.99C34.7899 37.3315 35.2635 37.5205 35.7551 37.5163C36.2467 37.512 36.717 37.3148 37.0647 36.9672C37.4123 36.6195 37.6095 36.1492 37.6138 35.6576C37.618 35.166 37.429 34.6924 37.0875 34.3387L29.5425 26.7975C29.367 26.6228 29.1588 26.4844 28.9297 26.3905C28.7005 26.2965 28.4551 26.2488 28.2075 26.25C28.1775 26.25 28.155 26.235 28.125 26.235C27.8698 26.2354 27.6175 26.2886 27.3839 26.3912C27.1503 26.4938 26.9404 26.6437 26.7675 26.8313L19.215 34.3762C18.8735 34.7299 18.6845 35.2035 18.6887 35.6951C18.693 36.1867 18.8902 36.657 19.2378 37.0047C19.5855 37.3523 20.0558 37.5495 20.5474 37.5538C21.039 37.558 21.5126 37.369 21.8662 37.0275L26.25 32.6475V45C26.25 47.5913 28.2075 52.5 35.625 52.5H48.75C54.9525 52.5 60 47.4525 60 41.25C60 35.0475 54.9975 29.9963 48.8475 29.9963Z" fill="#2A73D9"/>
</svg>
